# File created by Blade
# Date/Time:  Thu Jan 22 19:49:01 2015
# Frame Rate: 120.000 fps
#------------------------------------------------------
:FULLY-SPECIFIED
:DEGREES
3129
root -2.142579 3.095409 -9.324856 -26.660000 -18.936705 0.725909
RightUpLeg -79.083494 31.225647 56.913438
RightLeg 110.636628 -0.000000 -0.000000
RightFoot 16.566408 -4.222488 -14.670438
RightToeBase 4.210054 -0.000000 -0.000000
LeftUpLeg -58.717829 9.263339 13.240209
LeftLeg 2.137802 -0.000000 -0.000000
LeftFoot 22.257259 7.025575 -11.698520
LeftToeBase -1.432541 -0.000000 0.000000
Spine 46.785796 -39.613924 -26.149577
RightShoulder -10.006251 -19.022741 -14.326446
RightArm 6.015515 -27.992271 84.685780
RightForeArm 19.424595 -0.000000 14.903638
RightHand 17.145428 0.000000 -14.588584
RightHandThumb1 -24.326973 -0.000000 -32.862282
LeftShoulder 2.424926 -26.859097 26.725709
LeftArm 78.317727 57.666052 -13.120242
LeftForeArm 31.779401 -0.000000 65.614517
LeftHand 17.084660 0.000000 -21.899421
LeftHandThumb1 -26.253704 0.000000 33.147579
Head -19.088343 -5.695440 -2.652654
3130
root -2.143707 3.091384 -9.329042 -26.641059 -18.899151 0.703259
RightUpLeg -79.126251 31.193488 56.904899
RightLeg 110.629890 -0.000000 -0.000000
RightFoot 16.560158 -4.222312 -14.662598
RightToeBase 4.171411 -0.000000 -0.000000
LeftUpLeg -58.730633 9.206296 13.250261
LeftLeg 2.100075 -0.000000 -0.000000
LeftFoot 22.200291 7.005238 -11.546519
LeftToeBase -1.450683 -0.000000 0.000000
Spine 46.771149 -39.536019 -25.982100
RightShoulder -10.000909 -19.123834 -14.299173
RightArm 5.976895 -27.991847 84.692947
RightForeArm 19.487293 -0.000000 15.021723
RightHand 17.246273 0.000000 -14.989495
RightHandThumb1 -24.326973 -0.000000 -32.862282
LeftShoulder 2.429259 -26.891913 26.751096
LeftArm 78.505502 57.513281 -13.143360
LeftForeArm 31.899390 0.000000 65.503530
LeftHand 17.064529 -0.000000 -21.733774
LeftHandThumb1 -26.253704 0.000000 33.147579
Head -19.297787 -3.896169 -3.287331
3131
root -2.141939 3.088927 -9.331092 -26.636353 -18.867534 0.716772
RightUpLeg -79.163057 31.169308 56.891527
RightLeg 110.641082 -0.000000 -0.000000
RightFoot 16.583348 -4.238797 -14.670758
RightToeBase 4.219961 -0.000000 -0.000000
LeftUpLeg -58.730387 9.127108 13.316327
LeftLeg 2.096436 -0.000000 -0.000000
LeftFoot 22.104889 7.010958 -11.555835
LeftToeBase -1.537462 -0.000000 0.000000
Spine 46.738702 -39.406704 -25.843015
RightShoulder -10.005985 -19.208253 -14.234536
RightArm 5.937011 -28.022124 84.643207
RightForeArm 19.660857 -0.000000 15.127156
RightHand 17.226160 -0.000000 -14.702883
RightHandThumb1 -24.326973 -0.000000 -32.862282
LeftShoulder 2.482281 -26.837765 26.784481
LeftArm 78.683306 57.279821 -13.186043
LeftForeArm 32.090852 0.000000 65.415319
LeftHand 17.077255 -0.000000 -21.577681
LeftHandThumb1 -26.253704 0.000000 33.147579
Head -19.463520 -2.259344 -3.851847
3132
root -2.137284 3.084771 -9.332495 -26.615198 -18.805945 0.723853
RightUpLeg -79.250969 31.154057 56.834786
RightLeg 110.669484 -0.000000 -0.000000
RightFoot 16.586613 -4.237144 -14.685960
RightToeBase 4.183231 -0.000000 -0.000000
LeftUpLeg -58.765981 9.024968 13.316588
LeftLeg 2.089400 -0.000000 -0.000000
LeftFoot 22.001640 6.981303 -11.574341
LeftToeBase -1.515751 -0.000000 0.000000
Spine 46.732743 -39.362690 -25.694953
RightShoulder -10.033212 -19.232039 -14.233946
RightArm 5.874102 -28.105008 84.642537
RightForeArm 19.786506 -0.000000 15.215290
RightHand 17.217159 0.000000 -14.737939
RightHandThumb1 -24.326973 -0.000000 -32.862282
LeftShoulder 2.441048 -26.940262 26.801577
LeftArm 78.837509 57.191965 -13.228256
LeftForeArm 32.253231 -0.000000 65.412954
LeftHand 17.014552 -0.000000 -21.567143
LeftHandThumb1 -26.253704 0.000000 33.147579
Head -19.743647 -0.533131 -4.515225
3133
root -2.138282 3.080243 -9.337251 -26.580794 -18.781031 0.711863
RightUpLeg -79.292830 31.172280 56.810048
RightLeg 110.653631 -0.000000 -0.000000
RightFoot 16.576619 -4.239717 -14.688065
RightToeBase 4.188765 -0.000000 -0.000000
LeftUpLeg -58.796285 8.986951 13.307825
LeftLeg 2.046289 -0.000000 -0.000000
LeftFoot 22.006753 6.843703 -11.425923
LeftToeBase -1.574318 -0.000000 0.000000
Spine 46.691080 -39.250946 -25.520657
RightShoulder -10.026851 -19.293933 -14.183752
RightArm 5.809754 -28.155028 84.621913
RightForeArm 19.902343 -0.000000 15.301356
RightHand 17.232221 0.000000 -14.705598
RightHandThumb1 -24.326973 -0.000000 -32.862282
LeftShoulder 2.455939 -27.061590 26.856147
LeftArm 79.041582 57.136124 -13.214684
LeftForeArm 32.334284 -0.000000 65.418861
LeftHand 16.880574 -0.000000 -21.369689
LeftHandThumb1 -26.253704 0.000000 33.147579
Head -19.992312 1.106970 -5.108542
3134
root -2.136909 3.077545 -9.338493 -26.554716 -18.748258 0.708687
RightUpLeg -79.345422 31.166830 56.784321
RightLeg 110.663483 -0.000000 -0.000000
RightFoot 16.576205 -4.242157 -14.686652
RightToeBase 4.168837 -0.000000 -0.000000
LeftUpLeg -58.819735 8.919607 13.325992
LeftLeg 2.022597 -0.000000 -0.000000
LeftFoot 21.987065 6.710499 -11.358733
LeftToeBase -1.684433 -0.000000 0.000000
Spine 46.652290 -39.161456 -25.345631
RightShoulder -10.031226 -19.369627 -14.159598
RightArm 5.781241 -28.214297 84.592087
RightForeArm 20.049977 -0.000000 15.367337
RightHand 17.212098 -0.000000 -14.633122
RightHandThumb1 -24.326973 -0.000000 -32.862282
LeftShoulder 2.453621 -27.116683 26.857021
LeftArm 79.204949 56.997393 -13.259077
LeftForeArm 32.588767 0.000000 65.436992
LeftHand 17.006268 -0.000000 -21.542342
LeftHandThumb1 -26.253704 0.000000 33.147579
Head -20.261167 2.686138 -5.728517
3135
root -2.136995 3.074249 -9.342341 -26.504580 -18.737928 0.694944
RightUpLeg -79.394940 31.169498 56.777759
RightLeg 110.655438 -0.000000 -0.000000
RightFoot 16.575837 -4.228624 -14.671712
RightToeBase 4.274175 -0.000000 -0.000000
LeftUpLeg -58.864877 8.873590 13.371761
LeftLeg 2.006607 -0.000000 -0.000000
LeftFoot 22.003728 6.573169 -11.362374
LeftToeBase -1.768373 -0.000000 0.000000
Spine 46.564273 -39.054141 -25.131163
RightShoulder -10.035521 -19.506868 -14.112228
RightArm 5.803287 -28.281178 84.520222
RightForeArm 20.238998 -0.000000 15.450554
RightHand 17.198784 -0.000000 -14.464024
RightHandThumb1 -24.326973 -0.000000 -32.862282
LeftShoulder 2.457156 -27.117007 26.861552
LeftArm 79.553697 56.815420 -13.095953
LeftForeArm 32.683485 -0.000000 65.432276
LeftHand 17.005839 -0.000000 -21.425462
LeftHandThumb1 -26.253704 0.000000 33.147579
Head -20.466786 4.226333 -6.324723
3136
root -2.134041 3.073193 -9.342186 -26.485299 -18.721759 0.712908
RightUpLeg -79.432718 31.170272 56.752400
RightLeg 110.672006 -0.000000 -0.000000
RightFoot 16.586504 -4.229206 -14.639895
RightToeBase 4.265902 -0.000000 -0.000000
LeftUpLeg -58.875153 8.790693 13.438020
LeftLeg 2.000906 -0.000000 -0.000000
LeftFoot 21.984201 6.497327 -11.413706
LeftToeBase -1.893195 -0.000000 0.000000
Spine 46.504597 -38.940306 -24.961656
RightShoulder -9.993289 -19.556316 -14.102062
RightArm 5.700590 -28.209128 84.514212
RightForeArm 20.255999 -0.000000 15.574390
RightHand 17.001733 -0.000000 -14.109269
RightHandThumb1 -24.326973 -0.000000 -32.862282
LeftShoulder 2.436746 -27.108363 26.879946
LeftArm 79.923087 56.640459 -12.910802
LeftForeArm 32.686510 -0.000000 65.428942
LeftHand 16.976748 -0.000000 -21.155592
LeftHandThumb1 -26.253704 0.000000 33.147579
Head -20.727444 5.714833 -6.942041
3137
root -2.129903 3.072245 -9.341157 -26.463604 -18.690812 0.721978
RightUpLeg -79.490269 31.168203 56.710858
RightLeg 110.696962 -0.000000 -0.000000
RightFoot 16.569731 -4.226921 -14.601665
RightToeBase 4.286624 -0.000000 -0.000000
LeftUpLeg -58.882083 8.697361 13.493719
LeftLeg 1.971551 -0.000000 -0.000000
LeftFoot 21.989071 6.408649 -11.397318
LeftToeBase -1.947373 -0.000000 0.000000
Spine 46.471613 -38.854859 -24.790894
RightShoulder -9.958870 -19.623491 -14.100539
RightArm 5.620580 -28.161515 84.496997
RightForeArm 20.372888 -0.000000 15.712336
RightHand 16.923919 -0.000000 -13.787572
RightHandThumb1 -24.326973 -0.000000 -32.862282
LeftShoulder 2.378326 -27.169201 26.898275
LeftArm 80.254413 56.527509 -12.766626
LeftForeArm 32.611204 0.000000 65.449851
LeftHand 16.985622 0.000000 -21.040461
LeftHandThumb1 -26.253704 0.000000 33.147579
Head -21.026179 7.183870 -7.565561
3138
root -2.126355 3.070232 -9.339529 -26.437083 -18.657481 0.731187
RightUpLeg -79.552015 31.180798 56.668708
RightLeg 110.722732 -0.000000 -0.000000
RightFoot 16.565362 -4.236776 -14.592567
RightToeBase 4.308596 -0.000000 -0.000000
LeftUpLeg -58.905976 8.615024 13.525440
LeftLeg 1.949787 -0.000000 -0.000000
LeftFoot 22.016112 6.289344 -11.315006
LeftToeBase -1.949126 -0.000000 0.000000
Spine 46.409155 -38.770909 -24.603256
RightShoulder -9.932028 -19.694438 -14.114563
RightArm 5.547821 -28.128016 84.500086
RightForeArm 20.420264 0.000000 15.813405
RightHand 16.835713 -0.000000 -13.673059
RightHandThumb1 -24.326973 -0.000000 -32.862282
LeftShoulder 2.336688 -27.214356 26.916886
LeftArm 80.651806 56.407375 -12.557556
LeftForeArm 32.557380 -0.000000 65.435715
LeftHand 17.012842 -0.000000 -20.779761
LeftHandThumb1 -26.253704 0.000000 33.147579
Head -21.316005 8.597636 -8.222526
3139
root -2.121824 3.068696 -9.334646 -26.433043 -18.599892 0.767674
RightUpLeg -79.613774 31.177306 56.609621
RightLeg 110.765948 -0.000000 -0.000000
RightFoot 16.546326 -4.276898 -14.559285
RightToeBase 4.326483 -0.000000 -0.000000
LeftUpLeg -58.909525 8.507634 13.535926
LeftLeg 1.923347 -0.000000 -0.000000
LeftFoot 22.043843 6.189720 -11.214928
LeftToeBase -2.050195 -0.000000 0.000000
Spine 46.338941 -38.668341 -24.454714
RightShoulder -9.889400 -19.835711 -14.109504
RightArm 5.519374 -28.176871 84.458066
RightForeArm 20.610185 -0.000000 15.938055
RightHand 16.735406 -0.000000 -13.547385
RightHandThumb1 -24.326973 -0.000000 -32.862282
LeftShoulder 2.357532 -27.255590 26.931322
LeftArm 80.884822 56.290604 -12.546151
LeftForeArm 32.304254 -0.000000 65.434576
LeftHand 17.012019 -0.000000 -21.031114
LeftHandThumb1 -26.253704 0.000000 33.147579
Head -21.555670 9.934560 -8.830136
3140
root -2.118471 3.067491 -9.328576 -26.429247 -18.530832 0.818798
RightUpLeg -79.685262 31.190574 56.524243
RightLeg 110.816481 -0.000000 -0.000000
RightFoot 16.509708 -4.305607 -14.518288
RightToeBase 4.387826 -0.000000 -0.000000
LeftUpLeg -58.916285 8.400193 13.529705
LeftLeg 1.900253 -0.000000 -0.000000
LeftFoot 22.048176 6.133747 -11.175166
LeftToeBase -2.065826 -0.000000 0.000000
Spine 46.278675 -38.591476 -24.347197
RightShoulder -9.887103 -19.914236 -14.105723
RightArm 5.490163 -28.276655 84.416122
RightForeArm 20.740660 0.000000 15.987362
RightHand 16.680346 -0.000000 -13.415350
RightHandThumb1 -24.326973 -0.000000 -32.862282
LeftShoulder 2.337564 -27.387163 26.981073
LeftArm 81.079093 56.300924 -12.592963
LeftForeArm 32.132519 -0.000000 65.410842
LeftHand 17.057893 -0.000000 -21.202150
LeftHandThumb1 -26.253704 0.000000 33.147579
Head -21.823223 11.262246 -9.448533
